<svg xmlns="http://www.w3.org/2000/svg" width="200" height="200" preserveAspectRatio="xMidYMid" style="shape-rendering:auto;background:0 0;display:block" viewBox="0 0 100 100"><g transform="matrix(.7 0 0 .7 15 15)"><animateTransform attributeName="transform" dur="0.7575757575757576s" keyTimes="0;1" repeatCount="indefinite" type="rotate" values="0 50 50;360 50 50"/><path fill="#0148fd" fill-opacity=".8" d="M50 50V0a50 50 0 0 1 50 50Z"/></g><g transform="matrix(.7 0 0 .7 15 15)"><animateTransform attributeName="transform" dur="1.0101010101010102s" keyTimes="0;1" repeatCount="indefinite" type="rotate" values="0 50 50;360 50 50"/><path fill="#f70000" fill-opacity=".8" d="M50 50h50a50 50 0 0 1-50 50Z"/></g><g transform="matrix(.7 0 0 .7 15 15)"><animateTransform attributeName="transform" dur="1.5151515151515151s" keyTimes="0;1" repeatCount="indefinite" type="rotate" values="0 50 50;360 50 50"/><path fill="#58f208" fill-opacity=".8" d="M50 50v50A50 50 0 0 1 0 50Z"/></g><g transform="matrix(.7 0 0 .7 15 15)"><animateTransform attributeName="transform" dur="3.0303030303030303s" keyTimes="0;1" repeatCount="indefinite" type="rotate" values="0 50 50;360 50 50"/><path fill="#2685ec" fill-opacity=".8" d="M50 50H0A50 50 0 0 1 50 0Z"/></g></svg>